<svg width="256" height="256" viewBox="0 0 256 256" fill="none" xmlns="http://www.w3.org/2000/svg">
<circle cx="128" cy="128" r="128" fill="#77A7FF"/>
<path d="M64.2109 198.746C64.2109 198.382 64.3346 198.076 64.582 197.828C64.8424 197.568 65.1549 197.438 65.5195 197.438H76.8867C77.2513 197.438 77.5638 197.561 77.8242 197.809C78.0716 198.069 78.1953 198.382 78.1953 198.746C78.1953 199.111 78.0651 199.423 77.8047 199.684C77.5573 199.931 77.2513 200.055 76.8867 200.055H72.5312V207.965C72.4531 208.746 72.0234 209.169 71.2422 209.234C70.8776 209.234 70.5586 209.117 70.2852 208.883C70.0247 208.635 69.8945 208.329 69.8945 207.965V200.055H65.5195C65.1549 200.055 64.849 199.924 64.6016 199.664C64.3411 199.417 64.2109 199.111 64.2109 198.746ZM80.6562 202.555C80.9036 201.93 81.3203 201.37 81.9062 200.875C82.5052 200.367 83.2604 200.107 84.1719 200.094H91.5156C91.8802 200.094 92.1862 200.224 92.4336 200.484C92.694 200.732 92.8242 201.038 92.8242 201.402C92.8242 201.767 92.694 202.079 92.4336 202.34C92.1862 202.587 91.8802 202.711 91.5156 202.711H84.0938C83.8464 202.711 83.6315 202.815 83.4492 203.023C83.2669 203.219 83.1237 203.453 83.0195 203.727C82.9284 204 82.8828 204.26 82.8828 204.508V207.926C82.8047 208.707 82.375 209.13 81.5938 209.195C81.2292 209.195 80.9102 209.078 80.6367 208.844C80.3763 208.596 80.2461 208.29 80.2461 207.926V204.527H80.2656C80.2656 203.85 80.3958 203.193 80.6562 202.555ZM105.676 207.926V203.219C105.676 202.893 105.507 202.724 105.168 202.711H98.332C98.0846 202.724 97.8698 202.835 97.6875 203.043C97.5052 203.238 97.3685 203.473 97.2773 203.746C97.1992 204.007 97.1602 204.273 97.1602 204.547C97.1602 204.807 97.1992 205.074 97.2773 205.348C97.3685 205.608 97.5052 205.842 97.6875 206.051C97.8698 206.246 98.0846 206.344 98.332 206.344H103.332C103.697 206.344 104.003 206.474 104.25 206.734C104.51 206.982 104.641 207.288 104.641 207.652C104.641 208.017 104.51 208.323 104.25 208.57C104.003 208.831 103.697 208.961 103.332 208.961H98.4102C97.4987 208.948 96.7435 208.694 96.1445 208.199C95.5586 207.691 95.1354 207.125 94.875 206.5C94.6276 205.862 94.5039 205.204 94.5039 204.527C94.5039 203.876 94.6341 203.238 94.8945 202.613C95.1549 201.975 95.5781 201.409 96.1641 200.914C96.75 200.406 97.6159 200.133 98.7617 200.094H106.965C107.329 200.094 107.642 200.217 107.902 200.465C108.163 200.699 108.299 200.999 108.312 201.363V207.926C108.312 208.29 108.176 208.596 107.902 208.844C107.642 209.078 107.329 209.195 106.965 209.195C106.184 209.13 105.754 208.707 105.676 207.926ZM121.711 198.395C121.789 197.613 122.219 197.19 123 197.125C123.365 197.125 123.677 197.249 123.938 197.496C124.211 197.73 124.348 198.03 124.348 198.395V207.691C124.335 208.056 124.198 208.362 123.938 208.609C123.677 208.844 123.365 208.961 123 208.961H114.797C113.651 208.922 112.785 208.655 112.199 208.16C111.613 207.652 111.19 207.086 110.93 206.461C110.669 205.823 110.539 205.178 110.539 204.527C110.539 203.85 110.663 203.199 110.91 202.574C111.171 201.936 111.594 201.37 112.18 200.875C112.779 200.367 113.534 200.107 114.445 200.094H119.367C119.732 200.094 120.038 200.224 120.285 200.484C120.546 200.732 120.676 201.038 120.676 201.402C120.676 201.767 120.546 202.079 120.285 202.34C120.038 202.587 119.732 202.711 119.367 202.711H114.367C114.12 202.711 113.905 202.815 113.723 203.023C113.54 203.219 113.404 203.453 113.312 203.727C113.234 203.987 113.195 204.247 113.195 204.508C113.195 204.781 113.234 205.055 113.312 205.328C113.404 205.589 113.54 205.823 113.723 206.031C113.905 206.227 114.12 206.331 114.367 206.344H121.203C121.542 206.331 121.711 206.161 121.711 205.836V198.395ZM130.93 208.961C129.784 208.922 128.918 208.655 128.332 208.16C127.746 207.652 127.323 207.086 127.062 206.461C126.802 205.823 126.672 205.178 126.672 204.527C126.672 203.85 126.796 203.199 127.043 202.574C127.303 201.936 127.727 201.37 128.312 200.875C128.911 200.367 129.667 200.107 130.578 200.094H138C138.365 200.094 138.671 200.217 138.918 200.465C139.178 200.699 139.309 200.986 139.309 201.324C139.309 201.676 139.178 201.975 138.918 202.223C138.671 202.457 138.365 202.574 138 202.574H130.695C130.409 202.574 130.155 202.672 129.934 202.867C129.725 203.062 129.569 203.316 129.465 203.629C129.374 203.941 129.328 204.247 129.328 204.547C129.328 204.872 129.374 205.191 129.465 205.504C129.569 205.816 129.725 206.07 129.934 206.266C130.155 206.448 130.409 206.546 130.695 206.559H138C138.365 206.559 138.671 206.676 138.918 206.91C139.178 207.145 139.309 207.424 139.309 207.75C139.309 208.089 139.178 208.375 138.918 208.609C138.671 208.844 138.365 208.961 138 208.961H130.93ZM139.074 204.488C139.074 204.736 138.964 204.951 138.742 205.133C138.547 205.302 138.299 205.387 138 205.387H131.613C131.314 205.387 131.06 205.302 130.852 205.133C130.643 204.951 130.539 204.736 130.539 204.488C130.539 204.254 130.643 204.046 130.852 203.863C131.06 203.694 131.314 203.609 131.613 203.609H138C138.299 203.609 138.553 203.701 138.762 203.883C138.97 204.052 139.074 204.254 139.074 204.488ZM142.902 209.195C142.551 209.182 142.251 209.059 142.004 208.824C141.757 208.577 141.626 208.277 141.613 207.926V203.062C141.626 202.138 141.757 201.266 142.004 200.445C142.264 199.625 142.688 198.935 143.273 198.375C143.872 197.802 144.628 197.49 145.539 197.438H153.078C153.43 197.451 153.723 197.581 153.957 197.828C154.204 198.062 154.335 198.355 154.348 198.707C154.348 199.072 154.224 199.384 153.977 199.645C153.742 199.905 153.443 200.042 153.078 200.055H146.203C145.708 200.081 145.298 200.27 144.973 200.621C144.647 200.973 144.439 201.376 144.348 201.832C144.27 202.275 144.237 202.763 144.25 203.297V207.926C144.237 208.29 144.1 208.596 143.84 208.844C143.579 209.078 143.267 209.195 142.902 209.195ZM145.168 204.059C145.168 203.694 145.298 203.388 145.559 203.141C145.806 202.88 146.112 202.75 146.477 202.75H153.078C153.443 202.75 153.749 202.88 153.996 203.141C154.257 203.388 154.387 203.694 154.387 204.059C154.387 204.423 154.263 204.736 154.016 204.996C153.755 205.243 153.443 205.367 153.078 205.367H146.477C146.112 205.367 145.799 205.243 145.539 204.996C145.292 204.736 145.168 204.423 145.168 204.059ZM157.512 197.125C157.863 197.138 158.163 197.268 158.41 197.516C158.658 197.75 158.788 198.043 158.801 198.395V207.965C158.723 208.746 158.293 209.169 157.512 209.234C157.147 209.234 156.828 209.117 156.555 208.883C156.294 208.635 156.164 208.329 156.164 207.965V198.395C156.177 198.03 156.314 197.73 156.574 197.496C156.835 197.249 157.147 197.125 157.512 197.125ZM165.324 208.961C164.178 208.922 163.312 208.655 162.727 208.16C162.141 207.652 161.717 207.086 161.457 206.461C161.197 205.823 161.066 205.178 161.066 204.527C161.066 203.85 161.19 203.199 161.438 202.574C161.698 201.936 162.121 201.37 162.707 200.875C163.306 200.367 164.061 200.107 164.973 200.094H171.301C172.212 200.107 172.961 200.367 173.547 200.875C174.146 201.37 174.569 201.936 174.816 202.574C175.077 203.199 175.207 203.85 175.207 204.527C175.207 205.178 175.077 205.823 174.816 206.461C174.556 207.086 174.133 207.652 173.547 208.16C172.961 208.655 172.095 208.922 170.949 208.961H165.324ZM164.895 202.711C164.647 202.711 164.432 202.815 164.25 203.023C164.068 203.219 163.931 203.453 163.84 203.727C163.762 203.987 163.723 204.247 163.723 204.508C163.723 204.781 163.762 205.055 163.84 205.328C163.931 205.589 164.068 205.823 164.25 206.031C164.432 206.227 164.647 206.331 164.895 206.344H171.379C171.626 206.331 171.841 206.227 172.023 206.031C172.206 205.823 172.336 205.589 172.414 205.328C172.505 205.055 172.551 204.781 172.551 204.508C172.551 204.247 172.505 203.987 172.414 203.727C172.336 203.453 172.206 203.219 172.023 203.023C171.841 202.815 171.626 202.711 171.379 202.711H164.895ZM181.594 209.215C181.151 209.215 180.708 209.137 180.266 208.98C179.836 208.824 179.419 208.596 179.016 208.297C178.612 207.984 178.26 207.574 177.961 207.066C177.661 206.559 177.499 205.953 177.473 205.25V201.09C177.473 200.725 177.603 200.426 177.863 200.191C178.137 199.944 178.456 199.82 178.82 199.82C179.602 199.885 180.025 200.309 180.09 201.09V205.094C180.103 205.406 180.168 205.673 180.285 205.895C180.402 206.103 180.533 206.272 180.676 206.402C180.819 206.52 180.962 206.611 181.105 206.676C181.262 206.728 181.418 206.754 181.574 206.754C181.73 206.754 181.887 206.728 182.043 206.676C182.199 206.611 182.349 206.52 182.492 206.402C182.635 206.272 182.766 206.103 182.883 205.895C183 205.673 183.059 205.406 183.059 205.094V201.09C183.059 200.725 183.189 200.426 183.449 200.191C183.723 199.944 184.042 199.82 184.406 199.82C185.188 199.885 185.617 200.309 185.695 201.09V205.094C185.708 205.406 185.773 205.667 185.891 205.875C186.008 206.096 186.138 206.272 186.281 206.402C186.424 206.52 186.568 206.611 186.711 206.676C186.867 206.728 187.023 206.754 187.18 206.754C187.336 206.754 187.492 206.728 187.648 206.676C187.805 206.611 187.954 206.52 188.098 206.402C188.241 206.272 188.371 206.103 188.488 205.895C188.605 205.673 188.664 205.406 188.664 205.094V201.09C188.664 200.725 188.794 200.426 189.055 200.191C189.328 199.944 189.647 199.82 190.012 199.82C190.793 199.885 191.223 200.309 191.301 201.09V205.25C191.301 205.953 191.145 206.559 190.832 207.066C190.533 207.574 190.181 207.984 189.777 208.297C189.387 208.596 188.97 208.824 188.527 208.98C188.098 209.137 187.655 209.215 187.199 209.215C186.757 209.215 186.314 209.137 185.871 208.98C185.441 208.824 185.025 208.59 184.621 208.277C184.543 208.225 184.471 208.167 184.406 208.102C184.328 208.167 184.257 208.225 184.191 208.277C183.788 208.59 183.365 208.824 182.922 208.98C182.492 209.137 182.049 209.215 181.594 209.215Z" fill="black"/>
<path d="M96.4648 155.843C97.2624 155.843 98.0371 155.979 98.7891 156.253C99.5638 156.526 100.304 156.925 101.011 157.449C101.125 157.563 101.25 157.677 101.387 157.791C101.501 157.677 101.626 157.563 101.763 157.449C102.469 156.925 103.198 156.526 103.95 156.253C104.725 155.979 105.5 155.843 106.274 155.843C107.072 155.843 107.847 155.979 108.599 156.253C109.373 156.526 110.103 156.937 110.786 157.483C111.493 158.007 112.108 158.714 112.632 159.603C113.179 160.491 113.452 161.551 113.452 162.781V175.12C113.315 176.487 112.563 177.228 111.196 177.342C110.558 177.342 110 177.137 109.521 176.727C109.066 176.294 108.838 175.758 108.838 175.12V163.055C108.838 162.508 108.735 162.052 108.53 161.688C108.325 161.3 108.097 161.004 107.847 160.799C107.596 160.571 107.334 160.411 107.061 160.32C106.787 160.206 106.514 160.149 106.24 160.149C105.967 160.149 105.693 160.206 105.42 160.32C105.169 160.411 104.919 160.571 104.668 160.799C104.417 161.004 104.189 161.3 103.984 161.688C103.779 162.052 103.665 162.508 103.643 163.055V175.12C103.506 176.487 102.754 177.228 101.387 177.342C100.749 177.342 100.19 177.137 99.7119 176.727C99.2562 176.294 99.0283 175.758 99.0283 175.12V163.055C99.0283 162.508 98.9258 162.052 98.7207 161.688C98.5156 161.3 98.2878 161.004 98.0371 160.799C97.7865 160.571 97.5244 160.411 97.251 160.32C96.9775 160.206 96.7041 160.149 96.4307 160.149C96.1572 160.149 95.8838 160.206 95.6104 160.32C95.3597 160.411 95.109 160.571 94.8584 160.799C94.6077 161.004 94.3799 161.3 94.1748 161.688C93.9697 162.052 93.8558 162.508 93.833 163.055V175.12C93.7191 176.487 92.9785 177.228 91.6113 177.342C90.9733 177.342 90.415 177.137 89.9365 176.727C89.4808 176.294 89.2529 175.758 89.2529 175.12V162.781C89.2985 161.551 89.5833 160.491 90.1074 159.603C90.6315 158.714 91.2467 158.007 91.9531 157.483C92.6595 156.937 93.3887 156.526 94.1406 156.253C94.9154 155.979 95.6901 155.843 96.4648 155.843ZM120.049 156.219C120.687 156.219 121.234 156.435 121.689 156.868C122.145 157.278 122.384 157.802 122.407 158.44V159.09C122.384 160.024 122.441 160.89 122.578 161.688C122.738 162.462 123.102 163.157 123.672 163.772C124.242 164.388 124.959 164.718 125.825 164.764H135.43V158.509C135.43 157.871 135.658 157.347 136.113 156.937C136.592 156.504 137.15 156.287 137.788 156.287C139.155 156.401 139.907 157.142 140.044 158.509V166.438C140.044 168.261 139.793 169.982 139.292 171.6C138.836 173.035 138.084 174.254 137.036 175.257C136.011 176.237 134.701 176.772 133.105 176.863H120.801C120.186 176.84 119.661 176.624 119.229 176.214C118.818 175.781 118.602 175.257 118.579 174.642C118.579 174.004 118.784 173.457 119.194 173.001C119.627 172.545 120.163 172.306 120.801 172.283H131.943C132.809 172.238 133.527 171.907 134.097 171.292C134.621 170.722 134.974 170.073 135.156 169.344H124.663C123.068 169.253 121.746 168.717 120.698 167.737C119.673 166.735 118.932 165.516 118.477 164.08C118.044 162.645 117.816 161.118 117.793 159.5V158.44C117.816 157.825 118.044 157.312 118.477 156.902C118.91 156.469 119.434 156.242 120.049 156.219ZM146.88 177.342C146.265 177.319 145.741 177.103 145.308 176.692C144.875 176.259 144.647 175.735 144.624 175.12V166.609C144.647 164.992 144.875 163.465 145.308 162.029C145.763 160.594 146.504 159.386 147.529 158.406C148.577 157.404 149.899 156.857 151.494 156.766H164.688C165.303 156.788 165.815 157.016 166.226 157.449C166.659 157.859 166.886 158.372 166.909 158.987C166.909 159.625 166.693 160.172 166.26 160.628C165.85 161.084 165.326 161.323 164.688 161.346H152.656C151.79 161.391 151.073 161.722 150.503 162.337C149.933 162.952 149.569 163.659 149.409 164.456C149.272 165.231 149.215 166.085 149.238 167.02V175.12C149.215 175.758 148.976 176.294 148.521 176.727C148.065 177.137 147.518 177.342 146.88 177.342ZM150.845 168.353C150.845 167.715 151.073 167.179 151.528 166.746C151.961 166.29 152.497 166.062 153.135 166.062H164.688C165.326 166.062 165.861 166.29 166.294 166.746C166.75 167.179 166.978 167.715 166.978 168.353C166.978 168.991 166.761 169.537 166.328 169.993C165.872 170.426 165.326 170.643 164.688 170.643H153.135C152.497 170.643 151.95 170.426 151.494 169.993C151.061 169.537 150.845 168.991 150.845 168.353Z" fill="black"/>
<g clip-path="url(#clip0_8_27)">
<path d="M171.151 125.111L171.156 125.12C171.761 124.456 172.312 123.736 172.8 122.985C173.236 122.313 173.624 121.604 173.959 120.882C173.627 121.6 173.243 122.295 172.811 122.959C172.316 123.721 171.758 124.443 171.151 125.111ZM145.647 98.9587C145.637 98.9303 145.632 98.9043 145.625 98.8719C145.635 98.9173 145.644 98.9627 145.658 99.0106L146.806 102.88L146.808 102.876L145.647 98.9587ZM172.252 104.166L172.256 104.168L173.786 100.479C173.804 100.434 173.819 100.394 173.83 100.351C173.821 100.373 173.814 100.402 173.805 100.424L172.252 104.166ZM160.425 127.025L162.318 126.812L165.125 130.474C166.378 130.008 167.568 129.406 168.679 128.669L167.374 124.25L168.657 122.843C169.14 122.313 169.587 121.737 169.983 121.128C170.378 120.518 170.723 119.876 171.01 119.219L171.773 117.484L176.34 116.879C176.556 115.566 176.628 114.233 176.544 112.899L172.057 111.823L171.481 110.008C171.042 108.627 170.386 107.341 169.534 106.183L168.401 104.649L170.173 100.379C169.145 99.5326 168.024 98.8047 166.832 98.2096L163.648 101.573L161.793 101.168C160.397 100.865 158.962 100.794 157.533 100.955L155.638 101.172L152.814 97.4828C151.561 97.9489 150.371 98.5508 149.261 99.2883L150.582 103.751L149.306 105.157C148.827 105.679 148.389 106.25 147.999 106.851C147.611 107.448 147.269 108.087 146.983 108.734L146.217 110.472L141.603 111.08C141.388 112.393 141.315 113.726 141.399 115.06L145.918 116.14L146.491 117.959C146.924 119.331 147.573 120.612 148.418 121.764L149.533 123.299L147.756 127.577C148.782 128.422 149.91 129.155 151.097 129.746L154.276 126.39L156.139 126.801C157.547 127.112 158.985 127.185 160.425 127.025ZM154.748 120.527C153.549 119.749 152.62 118.709 151.983 117.53C150.586 114.958 150.603 111.722 152.31 109.092C154.791 105.272 159.9 104.186 163.721 106.667C166.35 108.375 167.682 111.324 167.452 114.242C167.352 115.575 166.926 116.902 166.145 118.105C163.667 121.921 158.564 123.006 154.748 120.527ZM139.314 118.021C139.05 117.955 138.815 117.825 138.631 117.644C138.825 117.837 139.066 117.982 139.345 118.052L143.284 118.99C143.283 118.983 143.278 118.974 143.276 118.968L139.314 118.021ZM178.106 120.038L174.102 120.567C174.097 120.575 174.093 120.589 174.088 120.597L178.085 120.069C178.52 120.011 178.902 119.767 179.138 119.412C178.902 119.75 178.528 119.982 178.106 120.038Z" fill="#D9D9D9"/>
<path d="M172.195 130.086C172.095 130.284 171.953 130.46 171.768 130.597L171.667 130.676C169.67 132.195 167.417 133.342 165.014 134.062L164.89 134.099C164.598 134.187 164.287 134.184 163.997 134.09C163.707 133.997 163.453 133.818 163.267 133.576L160.81 130.365C159.01 130.57 157.189 130.475 155.421 130.084L152.634 133.024C152.424 133.246 152.152 133.398 151.853 133.46C151.555 133.523 151.245 133.494 150.964 133.376L150.845 133.327C149.697 132.845 148.594 132.262 147.55 131.584L147.562 131.592C148.612 132.273 149.722 132.861 150.864 133.34L150.983 133.389C151.264 133.507 151.575 133.536 151.873 133.473C152.171 133.41 152.444 133.258 152.653 133.037L155.438 130.101C157.208 130.49 159.013 130.584 160.82 130.383L163.274 133.592C163.46 133.833 163.714 134.012 164.004 134.106C164.294 134.199 164.605 134.202 164.896 134.114L165.021 134.078C167.438 133.35 169.669 132.212 171.664 130.697L171.766 130.618C171.949 130.474 172.096 130.29 172.195 130.086Z" fill="#D9D9D9"/>
<path d="M166.146 118.077C166.92 116.886 167.347 115.566 167.452 114.242C167.682 111.324 166.35 108.375 163.721 106.667C159.9 104.186 154.791 105.272 152.31 109.092C150.603 111.722 150.586 114.958 151.983 117.53C152.617 118.697 153.541 119.727 154.736 120.503C158.556 122.984 163.665 121.898 166.146 118.077ZM154.826 110.726C155.589 109.551 156.766 108.745 158.137 108.45C159.511 108.158 160.912 108.419 162.087 109.182C163.262 109.946 164.071 111.119 164.363 112.493C164.507 113.168 164.517 113.864 164.391 114.542C164.265 115.22 164.007 115.866 163.631 116.444C162.867 117.619 161.69 118.425 160.32 118.719C159.645 118.864 158.949 118.873 158.271 118.748C157.593 118.622 156.947 118.363 156.369 117.987C155.194 117.224 154.388 116.047 154.094 114.676C153.949 114.002 153.94 113.306 154.065 112.628C154.191 111.95 154.45 111.304 154.826 110.726Z" fill="black"/>
<path d="M150.964 133.376C151.245 133.494 151.555 133.523 151.853 133.46C152.152 133.398 152.424 133.246 152.634 133.024L155.42 130.084C157.189 130.475 159.01 130.57 160.81 130.365L163.267 133.576C163.453 133.818 163.707 133.997 163.997 134.09C164.287 134.184 164.598 134.187 164.89 134.099L165.014 134.062C167.431 133.335 169.669 132.195 171.667 130.676L171.768 130.597C171.953 130.46 172.095 130.284 172.195 130.086C172.361 129.753 172.404 129.361 172.296 128.984L171.156 125.12L171.151 125.111C171.758 124.443 172.316 123.721 172.811 122.959C173.243 122.295 173.629 121.596 173.959 120.882C174.003 120.788 174.044 120.691 174.088 120.597C174.093 120.589 174.097 120.575 174.102 120.567L178.106 120.038C178.528 119.982 178.902 119.75 179.138 119.412C179.244 119.257 179.325 119.081 179.37 118.892L179.401 118.766C179.979 116.325 180.11 113.8 179.788 111.312L179.771 111.183C179.732 110.882 179.602 110.599 179.399 110.372C179.196 110.146 178.93 109.986 178.634 109.914L174.701 108.975C174.149 107.242 173.332 105.627 172.256 104.168L172.252 104.166L173.805 100.424C173.814 100.402 173.825 100.376 173.83 100.351C173.927 100.076 173.943 99.7794 173.875 99.4961C173.807 99.2129 173.658 98.9554 173.447 98.7552L173.353 98.6666C171.545 96.9673 169.391 95.5685 167.104 94.608L166.985 94.5588C166.704 94.441 166.393 94.4115 166.095 94.4743C165.797 94.5371 165.524 94.6892 165.315 94.9104L162.514 97.8638C160.755 97.4818 158.945 97.3903 157.157 97.5929L154.681 94.3586C154.495 94.1172 154.241 93.9379 153.951 93.8445C153.661 93.7512 153.35 93.7482 153.059 93.836L152.934 93.8726C150.532 94.593 148.278 95.7399 146.282 97.2586L146.18 97.3378C145.95 97.513 145.775 97.751 145.676 98.0231C145.578 98.2952 145.56 98.5899 145.625 98.8719C145.635 98.9004 145.637 98.9303 145.647 98.9587L146.808 102.876L146.806 102.88C146.204 103.54 145.657 104.252 145.17 105.003C144.68 105.757 144.249 106.55 143.893 107.365L139.842 107.897C139.54 107.937 139.257 108.068 139.032 108.273C138.806 108.478 138.648 108.746 138.578 109.043L138.547 109.168C137.972 111.611 137.839 114.123 138.16 116.623L138.177 116.752C138.224 117.101 138.385 117.412 138.631 117.644C138.818 117.821 139.05 117.955 139.314 118.021L143.276 118.968C143.278 118.974 143.283 118.983 143.284 118.99C143.832 120.703 144.64 122.306 145.702 123.751L144.144 127.511C144.027 127.792 143.999 128.103 144.063 128.401C144.127 128.699 144.28 128.971 144.502 129.18L144.595 129.268C145.501 130.119 146.489 130.895 147.539 131.577L147.55 131.584C148.596 132.263 149.707 132.85 150.845 133.327L150.964 133.376ZM151.097 129.746C149.905 129.151 148.784 128.423 147.756 127.577L149.533 123.299L148.418 121.764C147.573 120.612 146.924 119.331 146.491 117.959L145.918 116.14L141.399 115.06C141.315 113.726 141.388 112.393 141.603 111.08L146.217 110.472L146.983 108.734C147.269 108.087 147.611 107.448 147.999 106.851C148.389 106.25 148.827 105.679 149.306 105.157L150.582 103.751L149.261 99.2883C150.371 98.5509 151.561 97.9489 152.814 97.4828L155.638 101.172L157.533 100.955C158.962 100.794 160.397 100.865 161.793 101.168L163.648 101.573L166.832 98.2096C168.019 98.8011 169.147 99.5337 170.173 100.379L168.401 104.649L169.534 106.183C170.386 107.341 171.042 108.627 171.481 110.008L172.057 111.823L176.544 112.899C176.628 114.233 176.556 115.566 176.34 116.879L171.773 117.484L171.01 119.219C170.723 119.876 170.378 120.518 169.983 121.128C169.587 121.737 169.14 122.313 168.657 122.843L167.374 124.25L168.679 128.669C167.568 129.405 166.375 130.011 165.125 130.474L162.318 126.812L160.425 127.025C158.985 127.185 157.547 127.112 156.139 126.801L154.276 126.39L151.097 129.746Z" fill="black"/>
</g>
<path d="M205.028 65.9972L205.042 66.0041C205.256 64.6965 205.36 63.3612 205.36 62.0398C205.36 60.8567 205.27 59.6667 205.104 58.5044C205.27 59.6598 205.353 60.829 205.353 61.9983C205.353 63.3405 205.242 64.6826 205.028 65.9972ZM152.427 54.125C152.392 54.0974 152.364 54.0697 152.33 54.0351C152.378 54.0835 152.427 54.132 152.482 54.1804L157.014 58.0478V58.0409L152.427 54.125ZM189.551 39.1811H189.558L188.486 33.3834C188.472 33.3142 188.458 33.252 188.437 33.1897C188.444 33.2243 188.458 33.2658 188.465 33.3004L189.551 39.1811ZM193.287 76.9906L195.46 75.2057L201.88 77.4818C203.056 75.8975 204.045 74.1956 204.827 72.3898L199.659 67.9689L200.116 65.1946C200.289 64.1499 200.379 63.0776 200.379 62.0052C200.379 60.9328 200.289 59.8605 200.116 58.8158L199.666 56.0553L204.834 51.6344C204.045 49.8356 203.063 48.1267 201.887 46.5424L195.467 48.8186L193.294 47.0336C191.641 45.6776 189.793 44.6121 187.808 43.8649L185.172 42.8756L183.933 36.1646C181.979 35.9433 180.007 35.9433 178.053 36.1646L176.814 42.8894L174.192 43.8788C172.22 44.626 170.387 45.6914 168.747 47.0405L166.575 48.8324L160.113 46.5355C158.937 48.1198 157.948 49.8217 157.166 51.6275L162.389 56.0899L161.94 58.8573C161.767 59.8881 161.684 60.9467 161.684 62.0052C161.684 63.0568 161.774 64.1222 161.94 65.1531L162.389 67.9205L157.166 72.3829C157.955 74.1817 158.937 75.8906 160.113 77.4749L166.575 75.178L168.747 76.9699C170.387 78.319 172.22 79.3844 174.192 80.1316L176.807 81.1348L178.046 87.8596C179.997 88.081 181.982 88.081 183.927 87.8596L185.165 81.1486L187.801 80.1593C189.793 79.4121 191.634 78.3467 193.287 76.9906ZM181.035 73.5106C178.924 73.5106 176.939 72.971 175.202 72.0232C171.404 69.9614 168.823 65.9418 168.823 61.3133C168.823 54.5886 174.275 49.1368 181 49.1368C185.628 49.1368 189.648 51.7174 191.71 55.5157C192.658 57.2453 193.197 59.2309 193.197 61.3479C193.197 68.0658 187.752 73.5106 181.035 73.5106ZM159.912 82.816C159.532 82.9474 159.138 82.9751 158.764 82.899C159.158 82.982 159.573 82.9682 159.975 82.8298L165.606 80.8235C165.599 80.8166 165.586 80.8096 165.579 80.8027L159.912 82.816ZM209.56 54.125L205.028 57.9994C205.028 58.0132 205.035 58.034 205.035 58.0478L209.56 54.1804C210.051 53.7584 210.327 53.1495 210.334 52.5199C210.314 53.1288 210.037 53.7168 209.56 54.125Z" fill="#D9D9D9"/>
<path d="M210.321 71.3175C210.355 71.6426 210.321 71.9747 210.203 72.293L210.141 72.4728C208.89 75.9581 207.022 79.1898 204.627 82.0134L204.502 82.1587C204.212 82.5018 203.824 82.7484 203.39 82.8658C202.957 82.9832 202.497 82.9658 202.074 82.816L196.449 80.8165C194.386 82.5166 192.055 83.8631 189.551 84.8016L188.465 90.6823C188.383 91.1248 188.168 91.5319 187.85 91.8495C187.531 92.1671 187.123 92.3801 186.68 92.4603L186.493 92.4949C184.685 92.8218 182.851 92.9862 181.014 92.9862H181.035C182.882 92.9862 184.729 92.8201 186.528 92.4949L186.715 92.4603C187.157 92.3801 187.565 92.1671 187.884 91.8495C188.203 91.5319 188.418 91.1248 188.5 90.6823L189.586 84.8085C192.09 83.8676 194.401 82.5323 196.477 80.8304L202.094 82.8298C202.518 82.9797 202.977 82.997 203.411 82.8796C203.845 82.7622 204.233 82.5156 204.523 82.1726L204.647 82.0273C207.055 79.1838 208.902 75.9805 210.154 72.5005L210.217 72.3206C210.327 71.9955 210.362 71.6495 210.321 71.3175Z" fill="#D9D9D9"/>
<path d="M193.177 61.3133C193.177 59.217 192.644 57.2384 191.71 55.5157C189.648 51.7174 185.628 49.1368 181 49.1368C174.275 49.1368 168.823 54.5886 168.823 61.3133C168.823 65.9418 171.404 69.9614 175.202 72.0232C176.925 72.9572 178.897 73.4899 181 73.4899C187.725 73.4899 193.177 68.0381 193.177 61.3133ZM173.251 61.3133C173.251 59.2447 174.061 57.3006 175.521 55.8339C176.987 54.3672 178.931 53.5646 181 53.5646C183.069 53.5646 185.013 54.3672 186.479 55.8339C187.2 56.5526 187.772 57.4067 188.161 58.347C188.551 59.2874 188.75 60.2955 188.749 61.3133C188.749 63.382 187.939 65.3261 186.479 66.7928C185.761 67.5135 184.907 68.0851 183.966 68.4745C183.026 68.864 182.018 69.0636 181 69.062C178.931 69.062 176.987 68.2526 175.521 66.7928C174.8 66.0741 174.228 65.22 173.839 64.2796C173.449 63.3393 173.25 62.3312 173.251 61.3133Z" fill="black"/>
<path d="M186.68 92.4604C187.123 92.3801 187.531 92.1671 187.85 91.8495C188.168 91.5319 188.383 91.1248 188.465 90.6823L189.551 84.8016C192.055 83.8631 194.385 82.5166 196.449 80.8165L202.074 82.816C202.497 82.9658 202.957 82.9832 203.39 82.8658C203.824 82.7484 204.212 82.5018 204.502 82.1587L204.627 82.0134C207.034 79.1699 208.888 75.9598 210.141 72.4729L210.203 72.293C210.321 71.9747 210.355 71.6426 210.321 71.3175C210.258 70.7709 209.995 70.252 209.559 69.8715L205.042 66.0041L205.028 65.9972C205.242 64.6826 205.353 63.3405 205.353 61.9983C205.353 60.829 205.27 59.6529 205.104 58.5044C205.083 58.3522 205.056 58.2 205.035 58.0478C205.035 58.034 205.028 58.0132 205.028 57.9994L209.559 54.125C210.037 53.7168 210.314 53.1288 210.334 52.5199C210.341 52.2432 210.3 51.9595 210.203 51.6897L210.141 51.5098C208.893 48.0231 207.025 44.7909 204.627 41.9693L204.502 41.824C204.211 41.4819 203.823 41.2359 203.39 41.1186C202.956 41.0013 202.497 41.0181 202.074 41.1667L196.449 43.1662C194.373 41.4642 192.063 40.122 189.558 39.1811H189.551L188.465 33.3004C188.458 33.2658 188.451 33.2243 188.437 33.1897C188.337 32.7714 188.118 32.3911 187.806 32.0951C187.494 31.7991 187.103 31.6001 186.68 31.5223L186.493 31.4878C182.889 30.8374 179.097 30.8374 175.493 31.4878L175.306 31.5223C174.863 31.6026 174.455 31.8156 174.137 32.1332C173.818 32.4508 173.603 32.8579 173.521 33.3004L172.428 39.2088C169.943 40.1499 167.63 41.4914 165.579 43.18L159.912 41.1667C159.489 41.0169 159.03 40.9995 158.596 41.1169C158.162 41.2343 157.774 41.4809 157.484 41.824L157.36 41.9693C154.964 44.7929 153.096 48.0246 151.846 51.5098L151.783 51.6897C151.639 52.0918 151.614 52.527 151.711 52.943C151.808 53.359 152.023 53.7382 152.33 54.0351C152.364 54.0628 152.392 54.0974 152.427 54.125L157.014 58.0409V58.0478C156.799 59.3485 156.695 60.6699 156.695 61.9914C156.695 63.3197 156.799 64.648 157.014 65.9418L152.427 69.8577C152.085 70.1503 151.84 70.54 151.725 70.975C151.61 71.41 151.631 71.8697 151.783 72.293L151.846 72.4729C153.098 75.9598 154.952 79.1769 157.36 82.0134L157.484 82.1587C157.823 82.5531 158.273 82.8091 158.764 82.899C159.138 82.9682 159.532 82.9474 159.912 82.816L165.579 80.8027C165.586 80.8096 165.599 80.8165 165.606 80.8235C167.661 82.5047 169.951 83.8399 172.428 84.7739L173.521 90.6823C173.603 91.1248 173.818 91.5319 174.137 91.8495C174.455 92.1671 174.863 92.3801 175.306 92.4604L175.493 92.4949C177.299 92.8201 179.146 92.9862 180.993 92.9862H181.014C182.854 92.9862 184.701 92.8201 186.493 92.4949L186.68 92.4604ZM183.927 87.8596C181.973 88.081 180 88.081 178.046 87.8596L176.807 81.1348L174.192 80.1316C172.22 79.3844 170.387 78.319 168.747 76.9699L166.575 75.178L160.113 77.4749C158.937 75.8906 157.955 74.1817 157.166 72.3829L162.389 67.9205L161.94 65.1531C161.774 64.1222 161.684 63.0568 161.684 62.0052C161.684 60.9467 161.767 59.8881 161.94 58.8573L162.389 56.0899L157.166 51.6275C157.948 49.8217 158.937 48.1198 160.113 46.5355L166.575 48.8324L168.747 47.0405C170.387 45.6914 172.22 44.626 174.192 43.8788L176.814 42.8894L178.053 36.1646C179.997 35.9433 181.982 35.9433 183.933 36.1646L185.172 42.8756L187.808 43.8649C189.793 44.6121 191.641 45.6776 193.294 47.0336L195.467 48.8186L201.887 46.5424C203.063 48.1267 204.045 49.8356 204.834 51.6344L199.666 56.0553L200.116 58.8158C200.289 59.8605 200.379 60.9328 200.379 62.0052C200.379 63.0776 200.289 64.1499 200.116 65.1946L199.659 67.9689L204.827 72.3898C204.044 74.1948 203.055 75.9034 201.88 77.4818L195.46 75.2057L193.287 76.9906C191.634 78.3466 189.793 79.4121 187.801 80.1593L185.165 81.1486L183.927 87.8596Z" fill="black"/>
<g clip-path="url(#clip1_8_27)">
<path d="M126.294 65.1032L126.318 65.1047C125.815 63.0374 125.131 60.9987 124.302 59.0455C123.559 57.2968 122.68 55.5944 121.705 53.9805C122.675 55.5841 123.532 57.2603 124.265 58.9885C125.107 60.9723 125.786 63.0257 126.294 65.1032ZM41.0957 80.5577C41.0272 80.5385 40.9689 80.515 40.8961 80.4856C40.9981 80.5268 41.1 80.568 41.2122 80.6048L50.3368 83.478L50.3325 83.4678L41.0957 80.5577ZM86.5931 35.177L86.6033 35.1726L81.3807 27.2759C81.3169 27.1824 81.2573 27.099 81.1876 27.02C81.2195 27.0668 81.266 27.1195 81.298 27.1663L86.5931 35.177ZM115.837 88.7187L117.928 84.7174L128.846 84.0536C129.591 80.9739 129.985 77.8375 130.008 74.678L119.595 71.386L118.53 66.9989C118.13 65.3462 117.59 63.7047 116.917 62.1197C116.244 60.5346 115.438 59.006 114.527 57.5704L112.131 53.7723L116.996 43.9953C114.702 41.8314 112.177 39.9219 109.445 38.318L101.383 45.7106L97.0521 44.4353C93.7573 43.4684 90.3585 43.0525 86.9548 43.1939L82.4379 43.3854L76.3969 34.243C73.3698 35.1418 70.454 36.3795 67.7047 37.9327L70.0934 48.6494L66.8384 51.7569C64.3928 54.0984 62.3514 56.8236 60.7742 59.8464L58.6875 63.858L47.6951 64.5171C46.9507 67.5968 46.5562 70.7332 46.5336 73.8927L57.0541 77.2113L58.1257 81.5839C58.5168 83.2161 59.0582 84.8328 59.7223 86.3974C60.3821 87.9518 61.1835 89.4701 62.0757 90.8897L64.4767 94.698L59.5558 104.571C61.8501 106.735 64.3744 108.644 67.1069 110.248L75.217 102.799L79.5522 104.085C82.8222 105.05 86.2006 105.474 89.5839 105.342L94.0787 105.184L100.128 114.347C103.151 113.45 106.086 112.204 108.821 110.657L106.441 99.9606L109.716 96.8445C112.192 94.4899 114.244 91.7605 115.837 88.7187ZM95.5434 91.2624C92.4245 92.5863 89.151 93.0345 85.9895 92.723C79.0819 92.0587 72.7456 87.7364 69.8416 80.8951C65.6224 70.9554 70.2601 59.4767 80.1999 55.2575C87.0412 52.3535 94.6016 53.6459 100.032 57.9665C102.518 59.9284 104.562 62.5247 105.89 65.6539C110.105 75.5834 105.473 87.0476 95.5434 91.2624ZM70.1614 118.269C69.6814 118.702 69.1159 118.99 68.5159 119.112C69.1509 118.987 69.7558 118.706 70.2621 118.25L77.3273 111.751C77.3128 111.745 77.288 111.744 77.2734 111.738L70.1614 118.269ZM125.543 44.712L121.276 53.2818C121.284 53.3022 121.308 53.3286 121.316 53.349L125.578 44.7938C126.039 43.8618 126.066 42.7883 125.681 41.8534C126.033 42.7663 125.992 43.8091 125.543 44.712Z" fill="#D9D9D9"/>
<path d="M137.455 69.6464C137.71 70.1053 137.867 70.6179 137.893 71.1621L137.914 71.467C138.252 77.4033 137.519 83.3519 135.749 89.0284L135.656 89.3213C135.443 90.0105 135.024 90.6183 134.457 91.0639C133.889 91.5096 133.2 91.772 132.479 91.8164L122.911 92.39C120.928 96.1975 118.327 99.6502 115.216 102.608L117.3 111.982C117.456 112.687 117.395 113.424 117.123 114.093C116.851 114.762 116.381 115.333 115.777 115.73L115.523 115.898C113.055 117.516 110.448 118.909 107.732 120.062L107.763 120.049C110.493 118.89 113.119 117.486 115.574 115.876L115.828 115.708C116.432 115.312 116.902 114.741 117.174 114.071C117.446 113.402 117.508 112.665 117.351 111.96L115.271 102.597C118.383 99.6344 120.961 96.211 122.961 92.3931L132.519 91.8238C133.239 91.7795 133.929 91.517 134.496 91.0714C135.063 90.6257 135.482 90.0179 135.696 89.3287L135.789 89.0358C137.563 83.3223 138.284 77.4287 137.951 71.4992L137.931 71.1943C137.89 70.6442 137.724 70.1112 137.455 69.6464Z" fill="#D9D9D9"/>
<path d="M105.838 65.6158C104.522 62.5173 102.493 59.9268 100.032 57.9665C94.6016 53.6459 87.0412 52.3535 80.1999 55.2575C70.2601 59.4767 65.6224 70.9554 69.8416 80.8951C72.7456 87.7364 79.0819 92.0587 85.9896 92.723C89.1219 93.0227 92.3705 92.573 95.4793 91.2534C105.419 87.0342 110.057 75.5556 105.838 65.6158ZM76.3863 78.1171C75.0885 75.0595 75.0652 71.6781 76.3026 68.5942C77.5503 65.5061 79.9204 63.1001 82.978 61.8022C86.0356 60.5043 89.4126 60.4708 92.5008 61.7185C94.017 62.3286 95.3977 63.2324 96.5633 64.378C97.729 65.5236 98.6566 66.8884 99.2928 68.3938C100.591 71.4515 100.614 74.8329 99.3765 77.9167C98.7665 79.4329 97.8626 80.8136 96.717 81.9792C95.5714 83.1448 94.2066 84.0725 92.7012 84.7087C89.6436 86.0066 86.2622 86.0299 83.1784 84.7924C81.6621 84.1823 80.2815 83.2785 79.1158 82.1329C77.9502 80.9873 77.0226 79.6225 76.3863 78.1171Z" fill="black"/>
<path d="M115.777 115.73C116.381 115.333 116.851 114.762 117.123 114.093C117.395 113.424 117.456 112.687 117.3 111.982L115.216 102.608C118.327 99.6502 120.928 96.1975 122.911 92.39L132.479 91.8164C133.2 91.772 133.889 91.5096 134.457 91.0639C135.024 90.6183 135.443 90.0105 135.656 89.3213L135.749 89.0284C137.524 83.3149 138.25 77.4067 137.914 71.467L137.893 71.1621C137.867 70.6179 137.71 70.1053 137.455 69.6464C137.02 68.8776 136.305 68.2756 135.422 67.9866L126.318 65.1047L126.294 65.1032C125.786 63.0257 125.107 60.9723 124.265 58.9885C123.532 57.2603 122.671 55.5739 121.705 53.9806C121.579 53.7686 121.442 53.561 121.316 53.349C121.308 53.3286 121.284 53.3022 121.276 53.2818L125.543 44.712C125.992 43.8091 126.033 42.7663 125.681 41.8534C125.518 41.44 125.279 41.0468 124.966 40.7087L124.761 40.4819C120.73 36.1109 115.94 32.5054 110.625 29.8396L110.35 29.703C109.705 29.3799 108.978 29.2597 108.263 29.3583C107.549 29.4568 106.881 29.7695 106.348 30.2551L99.2888 36.7395C95.1531 35.5261 90.8955 34.992 86.6033 35.1726L86.5931 35.177L81.298 27.1663C81.266 27.1195 81.2298 27.0625 81.1876 27.02C80.7775 26.4644 80.2149 26.0399 79.568 25.7981C78.9212 25.5563 78.218 25.5077 77.544 25.6581L77.2462 25.7241C71.5104 27.0244 65.9065 29.4031 60.9867 32.6259L60.7323 32.7942C60.1281 33.1906 59.6589 33.7615 59.3869 34.4309C59.1149 35.1004 59.053 35.8368 59.2095 36.5422L61.3008 45.9612C58.2189 48.911 55.6408 52.3455 53.6685 56.1283L44.0302 56.7075C43.31 56.7519 42.6203 57.0143 42.0528 57.46C41.4854 57.9056 41.0669 58.5135 40.8532 59.2026L40.7603 59.4955C38.991 65.172 38.2578 71.1206 38.5959 77.0569L38.6167 77.3618C38.6559 78.0466 38.8918 78.7055 39.2961 79.2596C39.7004 79.8137 40.2559 80.2393 40.8961 80.4856C40.9646 80.5048 41.0272 80.5385 41.0957 80.5577L50.3325 83.4678L50.3368 83.478C50.8359 85.5351 51.5115 87.5534 52.3406 89.5066C53.174 91.47 54.1609 93.3683 55.2896 95.146L50.9665 103.812C50.6449 104.459 50.5278 105.188 50.6309 105.904C50.7339 106.619 51.0522 107.285 51.5434 107.815L51.7483 108.042C55.787 112.41 60.546 116.002 65.8844 118.684L66.1596 118.821C66.9081 119.191 67.7334 119.287 68.5159 119.112C69.1115 118.98 69.6814 118.702 70.1614 118.269L77.2734 111.738C77.288 111.744 77.3128 111.745 77.3273 111.751C81.4193 112.947 85.6419 113.484 89.8888 113.31L95.2116 121.358C95.6103 121.96 96.183 122.427 96.8535 122.697C97.524 122.966 98.2606 123.025 98.9655 122.866L99.2633 122.8C102.136 122.147 104.971 121.234 107.701 120.075L107.732 120.062C110.452 118.907 113.078 117.503 115.523 115.898L115.777 115.73ZM108.821 110.657C106.071 112.21 103.155 113.448 100.128 114.347L94.0788 105.184L89.5839 105.342C86.2006 105.474 82.8222 105.05 79.5522 104.085L75.217 102.799L67.1069 110.248C64.3744 108.644 61.8501 106.735 59.5558 104.571L64.4767 94.698L62.0757 90.8897C61.1835 89.4702 60.3821 87.9518 59.7223 86.3974C59.0582 84.8328 58.5168 83.2161 58.1257 81.5839L57.0541 77.2113L46.5336 73.8927C46.5562 70.7332 46.9507 67.5968 47.6951 64.5171L58.6875 63.858L60.7742 59.8464C62.3514 56.8236 64.3928 54.0984 66.8384 51.7569L70.0934 48.6494L67.7047 37.9327C70.4393 36.3857 73.3742 35.1399 76.3969 34.243L82.4379 43.3854L86.9548 43.1939C90.3585 43.0525 93.7573 43.4684 97.0521 44.4353L101.383 45.7106L109.445 38.318C112.177 39.9219 114.702 41.8314 116.996 43.9953L112.131 53.7723L114.527 57.5704C115.438 59.006 116.244 60.5346 116.917 62.1197C117.59 63.7047 118.13 65.3462 118.53 66.9989L119.595 71.386L130.008 74.678C129.982 77.8374 129.593 80.9834 128.846 84.0536L117.928 84.7174L115.837 88.7187C114.244 91.7605 112.192 94.4899 109.716 96.8445L106.441 99.9606L108.821 110.657Z" fill="black"/>
</g>
<defs>
<clipPath id="clip0_8_27">
<rect width="42" height="42" fill="white" transform="translate(152.8 84.9254) rotate(33)"/>
</clipPath>
<clipPath id="clip1_8_27">
<rect width="99.5556" height="99.5556" fill="white" transform="translate(23 47.8994) rotate(-23)"/>
</clipPath>
</defs>
</svg>
