<svg width="257" height="257" viewBox="0 0 257 257" fill="none" xmlns="http://www.w3.org/2000/svg">
<circle cx="128.5" cy="128.5" r="128" stroke="black"/>
<path d="M64.7109 199.246C64.7109 198.882 64.8346 198.576 65.082 198.328C65.3424 198.068 65.6549 197.938 66.0195 197.938H77.3867C77.7513 197.938 78.0638 198.061 78.3242 198.309C78.5716 198.569 78.6953 198.882 78.6953 199.246C78.6953 199.611 78.5651 199.923 78.3047 200.184C78.0573 200.431 77.7513 200.555 77.3867 200.555H73.0312V208.465C72.9531 209.246 72.5234 209.669 71.7422 209.734C71.3776 209.734 71.0586 209.617 70.7852 209.383C70.5247 209.135 70.3945 208.829 70.3945 208.465V200.555H66.0195C65.6549 200.555 65.349 200.424 65.1016 200.164C64.8411 199.917 64.7109 199.611 64.7109 199.246ZM81.1562 203.055C81.4036 202.43 81.8203 201.87 82.4062 201.375C83.0052 200.867 83.7604 200.607 84.6719 200.594H92.0156C92.3802 200.594 92.6862 200.724 92.9336 200.984C93.194 201.232 93.3242 201.538 93.3242 201.902C93.3242 202.267 93.194 202.579 92.9336 202.84C92.6862 203.087 92.3802 203.211 92.0156 203.211H84.5938C84.3464 203.211 84.1315 203.315 83.9492 203.523C83.7669 203.719 83.6237 203.953 83.5195 204.227C83.4284 204.5 83.3828 204.76 83.3828 205.008V208.426C83.3047 209.207 82.875 209.63 82.0938 209.695C81.7292 209.695 81.4102 209.578 81.1367 209.344C80.8763 209.096 80.7461 208.79 80.7461 208.426V205.027H80.7656C80.7656 204.35 80.8958 203.693 81.1562 203.055ZM106.176 208.426V203.719C106.176 203.393 106.007 203.224 105.668 203.211H98.832C98.5846 203.224 98.3698 203.335 98.1875 203.543C98.0052 203.738 97.8685 203.973 97.7773 204.246C97.6992 204.507 97.6602 204.773 97.6602 205.047C97.6602 205.307 97.6992 205.574 97.7773 205.848C97.8685 206.108 98.0052 206.342 98.1875 206.551C98.3698 206.746 98.5846 206.844 98.832 206.844H103.832C104.197 206.844 104.503 206.974 104.75 207.234C105.01 207.482 105.141 207.788 105.141 208.152C105.141 208.517 105.01 208.823 104.75 209.07C104.503 209.331 104.197 209.461 103.832 209.461H98.9102C97.9987 209.448 97.2435 209.194 96.6445 208.699C96.0586 208.191 95.6354 207.625 95.375 207C95.1276 206.362 95.0039 205.704 95.0039 205.027C95.0039 204.376 95.1341 203.738 95.3945 203.113C95.6549 202.475 96.0781 201.909 96.6641 201.414C97.25 200.906 98.1159 200.633 99.2617 200.594H107.465C107.829 200.594 108.142 200.717 108.402 200.965C108.663 201.199 108.799 201.499 108.812 201.863V208.426C108.812 208.79 108.676 209.096 108.402 209.344C108.142 209.578 107.829 209.695 107.465 209.695C106.684 209.63 106.254 209.207 106.176 208.426ZM122.211 198.895C122.289 198.113 122.719 197.69 123.5 197.625C123.865 197.625 124.177 197.749 124.438 197.996C124.711 198.23 124.848 198.53 124.848 198.895V208.191C124.835 208.556 124.698 208.862 124.438 209.109C124.177 209.344 123.865 209.461 123.5 209.461H115.297C114.151 209.422 113.285 209.155 112.699 208.66C112.113 208.152 111.69 207.586 111.43 206.961C111.169 206.323 111.039 205.678 111.039 205.027C111.039 204.35 111.163 203.699 111.41 203.074C111.671 202.436 112.094 201.87 112.68 201.375C113.279 200.867 114.034 200.607 114.945 200.594H119.867C120.232 200.594 120.538 200.724 120.785 200.984C121.046 201.232 121.176 201.538 121.176 201.902C121.176 202.267 121.046 202.579 120.785 202.84C120.538 203.087 120.232 203.211 119.867 203.211H114.867C114.62 203.211 114.405 203.315 114.223 203.523C114.04 203.719 113.904 203.953 113.812 204.227C113.734 204.487 113.695 204.747 113.695 205.008C113.695 205.281 113.734 205.555 113.812 205.828C113.904 206.089 114.04 206.323 114.223 206.531C114.405 206.727 114.62 206.831 114.867 206.844H121.703C122.042 206.831 122.211 206.661 122.211 206.336V198.895ZM131.43 209.461C130.284 209.422 129.418 209.155 128.832 208.66C128.246 208.152 127.823 207.586 127.562 206.961C127.302 206.323 127.172 205.678 127.172 205.027C127.172 204.35 127.296 203.699 127.543 203.074C127.803 202.436 128.227 201.87 128.812 201.375C129.411 200.867 130.167 200.607 131.078 200.594H138.5C138.865 200.594 139.171 200.717 139.418 200.965C139.678 201.199 139.809 201.486 139.809 201.824C139.809 202.176 139.678 202.475 139.418 202.723C139.171 202.957 138.865 203.074 138.5 203.074H131.195C130.909 203.074 130.655 203.172 130.434 203.367C130.225 203.562 130.069 203.816 129.965 204.129C129.874 204.441 129.828 204.747 129.828 205.047C129.828 205.372 129.874 205.691 129.965 206.004C130.069 206.316 130.225 206.57 130.434 206.766C130.655 206.948 130.909 207.046 131.195 207.059H138.5C138.865 207.059 139.171 207.176 139.418 207.41C139.678 207.645 139.809 207.924 139.809 208.25C139.809 208.589 139.678 208.875 139.418 209.109C139.171 209.344 138.865 209.461 138.5 209.461H131.43ZM139.574 204.988C139.574 205.236 139.464 205.451 139.242 205.633C139.047 205.802 138.799 205.887 138.5 205.887H132.113C131.814 205.887 131.56 205.802 131.352 205.633C131.143 205.451 131.039 205.236 131.039 204.988C131.039 204.754 131.143 204.546 131.352 204.363C131.56 204.194 131.814 204.109 132.113 204.109H138.5C138.799 204.109 139.053 204.201 139.262 204.383C139.47 204.552 139.574 204.754 139.574 204.988ZM143.402 209.695C143.051 209.682 142.751 209.559 142.504 209.324C142.257 209.077 142.126 208.777 142.113 208.426V203.562C142.126 202.638 142.257 201.766 142.504 200.945C142.764 200.125 143.188 199.435 143.773 198.875C144.372 198.302 145.128 197.99 146.039 197.938H153.578C153.93 197.951 154.223 198.081 154.457 198.328C154.704 198.562 154.835 198.855 154.848 199.207C154.848 199.572 154.724 199.884 154.477 200.145C154.242 200.405 153.943 200.542 153.578 200.555H146.703C146.208 200.581 145.798 200.77 145.473 201.121C145.147 201.473 144.939 201.876 144.848 202.332C144.77 202.775 144.737 203.263 144.75 203.797V208.426C144.737 208.79 144.6 209.096 144.34 209.344C144.079 209.578 143.767 209.695 143.402 209.695ZM145.668 204.559C145.668 204.194 145.798 203.888 146.059 203.641C146.306 203.38 146.612 203.25 146.977 203.25H153.578C153.943 203.25 154.249 203.38 154.496 203.641C154.757 203.888 154.887 204.194 154.887 204.559C154.887 204.923 154.763 205.236 154.516 205.496C154.255 205.743 153.943 205.867 153.578 205.867H146.977C146.612 205.867 146.299 205.743 146.039 205.496C145.792 205.236 145.668 204.923 145.668 204.559ZM158.012 197.625C158.363 197.638 158.663 197.768 158.91 198.016C159.158 198.25 159.288 198.543 159.301 198.895V208.465C159.223 209.246 158.793 209.669 158.012 209.734C157.647 209.734 157.328 209.617 157.055 209.383C156.794 209.135 156.664 208.829 156.664 208.465V198.895C156.677 198.53 156.814 198.23 157.074 197.996C157.335 197.749 157.647 197.625 158.012 197.625ZM165.824 209.461C164.678 209.422 163.812 209.155 163.227 208.66C162.641 208.152 162.217 207.586 161.957 206.961C161.697 206.323 161.566 205.678 161.566 205.027C161.566 204.35 161.69 203.699 161.938 203.074C162.198 202.436 162.621 201.87 163.207 201.375C163.806 200.867 164.561 200.607 165.473 200.594H171.801C172.712 200.607 173.461 200.867 174.047 201.375C174.646 201.87 175.069 202.436 175.316 203.074C175.577 203.699 175.707 204.35 175.707 205.027C175.707 205.678 175.577 206.323 175.316 206.961C175.056 207.586 174.633 208.152 174.047 208.66C173.461 209.155 172.595 209.422 171.449 209.461H165.824ZM165.395 203.211C165.147 203.211 164.932 203.315 164.75 203.523C164.568 203.719 164.431 203.953 164.34 204.227C164.262 204.487 164.223 204.747 164.223 205.008C164.223 205.281 164.262 205.555 164.34 205.828C164.431 206.089 164.568 206.323 164.75 206.531C164.932 206.727 165.147 206.831 165.395 206.844H171.879C172.126 206.831 172.341 206.727 172.523 206.531C172.706 206.323 172.836 206.089 172.914 205.828C173.005 205.555 173.051 205.281 173.051 205.008C173.051 204.747 173.005 204.487 172.914 204.227C172.836 203.953 172.706 203.719 172.523 203.523C172.341 203.315 172.126 203.211 171.879 203.211H165.395ZM182.094 209.715C181.651 209.715 181.208 209.637 180.766 209.48C180.336 209.324 179.919 209.096 179.516 208.797C179.112 208.484 178.76 208.074 178.461 207.566C178.161 207.059 177.999 206.453 177.973 205.75V201.59C177.973 201.225 178.103 200.926 178.363 200.691C178.637 200.444 178.956 200.32 179.32 200.32C180.102 200.385 180.525 200.809 180.59 201.59V205.594C180.603 205.906 180.668 206.173 180.785 206.395C180.902 206.603 181.033 206.772 181.176 206.902C181.319 207.02 181.462 207.111 181.605 207.176C181.762 207.228 181.918 207.254 182.074 207.254C182.23 207.254 182.387 207.228 182.543 207.176C182.699 207.111 182.849 207.02 182.992 206.902C183.135 206.772 183.266 206.603 183.383 206.395C183.5 206.173 183.559 205.906 183.559 205.594V201.59C183.559 201.225 183.689 200.926 183.949 200.691C184.223 200.444 184.542 200.32 184.906 200.32C185.688 200.385 186.117 200.809 186.195 201.59V205.594C186.208 205.906 186.273 206.167 186.391 206.375C186.508 206.596 186.638 206.772 186.781 206.902C186.924 207.02 187.068 207.111 187.211 207.176C187.367 207.228 187.523 207.254 187.68 207.254C187.836 207.254 187.992 207.228 188.148 207.176C188.305 207.111 188.454 207.02 188.598 206.902C188.741 206.772 188.871 206.603 188.988 206.395C189.105 206.173 189.164 205.906 189.164 205.594V201.59C189.164 201.225 189.294 200.926 189.555 200.691C189.828 200.444 190.147 200.32 190.512 200.32C191.293 200.385 191.723 200.809 191.801 201.59V205.75C191.801 206.453 191.645 207.059 191.332 207.566C191.033 208.074 190.681 208.484 190.277 208.797C189.887 209.096 189.47 209.324 189.027 209.48C188.598 209.637 188.155 209.715 187.699 209.715C187.257 209.715 186.814 209.637 186.371 209.48C185.941 209.324 185.525 209.09 185.121 208.777C185.043 208.725 184.971 208.667 184.906 208.602C184.828 208.667 184.757 208.725 184.691 208.777C184.288 209.09 183.865 209.324 183.422 209.48C182.992 209.637 182.549 209.715 182.094 209.715Z" fill="black"/>
<path d="M96.9648 156.343C97.7624 156.343 98.5371 156.479 99.2891 156.753C100.064 157.026 100.804 157.425 101.511 157.949C101.625 158.063 101.75 158.177 101.887 158.291C102.001 158.177 102.126 158.063 102.263 157.949C102.969 157.425 103.698 157.026 104.45 156.753C105.225 156.479 106 156.343 106.774 156.343C107.572 156.343 108.347 156.479 109.099 156.753C109.873 157.026 110.603 157.437 111.286 157.983C111.993 158.507 112.608 159.214 113.132 160.103C113.679 160.991 113.952 162.051 113.952 163.281V175.62C113.815 176.987 113.063 177.728 111.696 177.842C111.058 177.842 110.5 177.637 110.021 177.227C109.566 176.794 109.338 176.258 109.338 175.62V163.555C109.338 163.008 109.235 162.552 109.03 162.188C108.825 161.8 108.597 161.504 108.347 161.299C108.096 161.071 107.834 160.911 107.561 160.82C107.287 160.706 107.014 160.649 106.74 160.649C106.467 160.649 106.193 160.706 105.92 160.82C105.669 160.911 105.419 161.071 105.168 161.299C104.917 161.504 104.689 161.8 104.484 162.188C104.279 162.552 104.165 163.008 104.143 163.555V175.62C104.006 176.987 103.254 177.728 101.887 177.842C101.249 177.842 100.69 177.637 100.212 177.227C99.7562 176.794 99.5283 176.258 99.5283 175.62V163.555C99.5283 163.008 99.4258 162.552 99.2207 162.188C99.0156 161.8 98.7878 161.504 98.5371 161.299C98.2865 161.071 98.0244 160.911 97.751 160.82C97.4775 160.706 97.2041 160.649 96.9307 160.649C96.6572 160.649 96.3838 160.706 96.1104 160.82C95.8597 160.911 95.609 161.071 95.3584 161.299C95.1077 161.504 94.8799 161.8 94.6748 162.188C94.4697 162.552 94.3558 163.008 94.333 163.555V175.62C94.2191 176.987 93.4785 177.728 92.1113 177.842C91.4733 177.842 90.915 177.637 90.4365 177.227C89.9808 176.794 89.7529 176.258 89.7529 175.62V163.281C89.7985 162.051 90.0833 160.991 90.6074 160.103C91.1315 159.214 91.7467 158.507 92.4531 157.983C93.1595 157.437 93.8887 157.026 94.6406 156.753C95.4154 156.479 96.1901 156.343 96.9648 156.343ZM120.549 156.719C121.187 156.719 121.734 156.935 122.189 157.368C122.645 157.778 122.884 158.302 122.907 158.94V159.59C122.884 160.524 122.941 161.39 123.078 162.188C123.238 162.962 123.602 163.657 124.172 164.272C124.742 164.888 125.459 165.218 126.325 165.264H135.93V159.009C135.93 158.371 136.158 157.847 136.613 157.437C137.092 157.004 137.65 156.787 138.288 156.787C139.655 156.901 140.407 157.642 140.544 159.009V166.938C140.544 168.761 140.293 170.482 139.792 172.1C139.336 173.535 138.584 174.754 137.536 175.757C136.511 176.737 135.201 177.272 133.605 177.363H121.301C120.686 177.34 120.161 177.124 119.729 176.714C119.318 176.281 119.102 175.757 119.079 175.142C119.079 174.504 119.284 173.957 119.694 173.501C120.127 173.045 120.663 172.806 121.301 172.783H132.443C133.309 172.738 134.027 172.407 134.597 171.792C135.121 171.222 135.474 170.573 135.656 169.844H125.163C123.568 169.753 122.246 169.217 121.198 168.237C120.173 167.235 119.432 166.016 118.977 164.58C118.544 163.145 118.316 161.618 118.293 160V158.94C118.316 158.325 118.544 157.812 118.977 157.402C119.41 156.969 119.934 156.742 120.549 156.719ZM147.38 177.842C146.765 177.819 146.241 177.603 145.808 177.192C145.375 176.759 145.147 176.235 145.124 175.62V167.109C145.147 165.492 145.375 163.965 145.808 162.529C146.263 161.094 147.004 159.886 148.029 158.906C149.077 157.904 150.399 157.357 151.994 157.266H165.188C165.803 157.288 166.315 157.516 166.726 157.949C167.159 158.359 167.386 158.872 167.409 159.487C167.409 160.125 167.193 160.672 166.76 161.128C166.35 161.584 165.826 161.823 165.188 161.846H153.156C152.29 161.891 151.573 162.222 151.003 162.837C150.433 163.452 150.069 164.159 149.909 164.956C149.772 165.731 149.715 166.585 149.738 167.52V175.62C149.715 176.258 149.476 176.794 149.021 177.227C148.565 177.637 148.018 177.842 147.38 177.842ZM151.345 168.853C151.345 168.215 151.573 167.679 152.028 167.246C152.461 166.79 152.997 166.562 153.635 166.562H165.188C165.826 166.562 166.361 166.79 166.794 167.246C167.25 167.679 167.478 168.215 167.478 168.853C167.478 169.491 167.261 170.037 166.828 170.493C166.372 170.926 165.826 171.143 165.188 171.143H153.635C152.997 171.143 152.45 170.926 151.994 170.493C151.561 170.037 151.345 169.491 151.345 168.853Z" fill="black"/>
<g clip-path="url(#clip0_19_2)">
<path d="M166.646 118.577C167.42 117.386 167.847 116.066 167.952 114.742C168.182 111.824 166.85 108.875 164.221 107.167C160.4 104.686 155.291 105.772 152.81 109.592C151.103 112.222 151.086 115.458 152.483 118.03C153.117 119.197 154.041 120.227 155.236 121.003C159.056 123.484 164.165 122.398 166.646 118.577ZM155.326 111.226C156.089 110.051 157.266 109.245 158.637 108.95C160.011 108.658 161.412 108.919 162.587 109.682C163.762 110.446 164.571 111.619 164.863 112.993C165.007 113.668 165.017 114.364 164.891 115.042C164.765 115.72 164.507 116.366 164.131 116.944C163.367 118.119 162.19 118.925 160.82 119.219C160.145 119.364 159.449 119.373 158.771 119.248C158.093 119.122 157.447 118.863 156.869 118.487C155.694 117.724 154.888 116.547 154.594 115.176C154.449 114.502 154.44 113.806 154.565 113.128C154.691 112.45 154.95 111.804 155.326 111.226Z" fill="black"/>
<path d="M151.464 133.876C151.745 133.994 152.055 134.023 152.353 133.96C152.652 133.898 152.924 133.746 153.134 133.524L155.92 130.584C157.689 130.975 159.51 131.07 161.31 130.865L163.767 134.076C163.953 134.318 164.207 134.497 164.497 134.59C164.787 134.684 165.098 134.687 165.39 134.599L165.514 134.562C167.931 133.835 170.169 132.695 172.167 131.176L172.268 131.097C172.453 130.96 172.595 130.784 172.695 130.586C172.861 130.253 172.904 129.861 172.796 129.484L171.656 125.62L171.651 125.611C172.258 124.943 172.816 124.221 173.311 123.459C173.743 122.795 174.129 122.096 174.459 121.382C174.503 121.288 174.544 121.191 174.588 121.097C174.593 121.089 174.597 121.075 174.602 121.067L178.606 120.538C179.028 120.482 179.402 120.25 179.638 119.912C179.744 119.757 179.825 119.581 179.87 119.392L179.901 119.266C180.479 116.825 180.61 114.3 180.288 111.812L180.271 111.683C180.232 111.382 180.102 111.099 179.899 110.872C179.696 110.646 179.43 110.486 179.134 110.414L175.201 109.475C174.649 107.742 173.832 106.127 172.756 104.668L172.752 104.666L174.305 100.924C174.314 100.902 174.325 100.876 174.33 100.851C174.427 100.576 174.443 100.279 174.375 99.9961C174.307 99.7129 174.158 99.4554 173.947 99.2552L173.853 99.1666C172.045 97.4673 169.891 96.0685 167.604 95.108L167.485 95.0588C167.204 94.941 166.893 94.9115 166.595 94.9743C166.297 95.0371 166.024 95.1892 165.815 95.4104L163.014 98.3638C161.255 97.9818 159.445 97.8903 157.657 98.0929L155.181 94.8586C154.995 94.6172 154.741 94.4379 154.451 94.3445C154.161 94.2512 153.85 94.2482 153.559 94.336L153.434 94.3726C151.032 95.093 148.778 96.2399 146.782 97.7586L146.68 97.8378C146.45 98.013 146.275 98.251 146.176 98.5231C146.078 98.7952 146.06 99.0899 146.125 99.3719C146.135 99.4004 146.137 99.4303 146.147 99.4587L147.308 103.376L147.306 103.38C146.704 104.04 146.157 104.752 145.67 105.503C145.18 106.257 144.749 107.05 144.393 107.865L140.342 108.397C140.04 108.437 139.757 108.568 139.532 108.773C139.306 108.978 139.148 109.246 139.078 109.543L139.047 109.668C138.472 112.111 138.339 114.623 138.66 117.123L138.677 117.252C138.724 117.601 138.885 117.912 139.131 118.144C139.318 118.321 139.55 118.455 139.814 118.521L143.776 119.468C143.778 119.474 143.783 119.483 143.784 119.49C144.332 121.203 145.14 122.806 146.202 124.251L144.644 128.011C144.527 128.292 144.499 128.603 144.563 128.901C144.627 129.199 144.78 129.471 145.002 129.68L145.095 129.768C146.001 130.619 146.989 131.395 148.039 132.077L148.05 132.084C149.096 132.763 150.207 133.35 151.345 133.827L151.464 133.876ZM151.597 130.246C150.405 129.651 149.284 128.923 148.256 128.077L150.033 123.799L148.918 122.264C148.073 121.112 147.424 119.831 146.991 118.459L146.418 116.64L141.899 115.56C141.815 114.226 141.888 112.893 142.103 111.58L146.717 110.972L147.483 109.234C147.769 108.587 148.111 107.948 148.499 107.351C148.889 106.75 149.327 106.179 149.806 105.657L151.082 104.251L149.761 99.7883C150.871 99.0508 152.061 98.4489 153.314 97.9828L156.138 101.672L158.033 101.455C159.462 101.294 160.897 101.365 162.293 101.668L164.148 102.073L167.332 98.7096C168.519 99.3011 169.647 100.034 170.673 100.879L168.901 105.149L170.034 106.683C170.886 107.841 171.542 109.127 171.981 110.508L172.557 112.323L177.044 113.399C177.128 114.733 177.056 116.066 176.84 117.379L172.273 117.984L171.51 119.719C171.223 120.376 170.878 121.018 170.483 121.628C170.087 122.237 169.64 122.813 169.157 123.343L167.874 124.75L169.179 129.169C168.068 129.905 166.875 130.511 165.625 130.974L162.818 127.312L160.925 127.525C159.485 127.685 158.047 127.612 156.639 127.301L154.776 126.89L151.597 130.246Z" fill="black"/>
</g>
<path d="M193.677 61.8133C193.677 59.717 193.144 57.7384 192.21 56.0157C190.148 52.2174 186.128 49.6368 181.5 49.6368C174.775 49.6368 169.323 55.0886 169.323 61.8133C169.323 66.4418 171.904 70.4614 175.702 72.5232C177.425 73.4572 179.397 73.9899 181.5 73.9899C188.225 73.9899 193.677 68.5381 193.677 61.8133ZM173.751 61.8133C173.751 59.7447 174.561 57.8006 176.021 56.3339C177.487 54.8672 179.431 54.0646 181.5 54.0646C183.569 54.0646 185.513 54.8672 186.979 56.3339C187.7 57.0526 188.272 57.9067 188.661 58.847C189.051 59.7874 189.25 60.7955 189.249 61.8133C189.249 63.882 188.439 65.8261 186.979 67.2928C186.261 68.0135 185.407 68.5851 184.466 68.9745C183.526 69.364 182.518 69.5636 181.5 69.562C179.431 69.562 177.487 68.7526 176.021 67.2928C175.3 66.5741 174.728 65.72 174.339 64.7796C173.949 63.8393 173.75 62.8312 173.751 61.8133Z" fill="black"/>
<path d="M187.18 92.9604C187.623 92.8801 188.031 92.6671 188.35 92.3495C188.668 92.0319 188.883 91.6248 188.965 91.1823L190.051 85.3016C192.555 84.3631 194.885 83.0166 196.949 81.3165L202.574 83.316C202.997 83.4658 203.457 83.4832 203.89 83.3658C204.324 83.2484 204.712 83.0018 205.002 82.6587L205.127 82.5134C207.534 79.6699 209.388 76.4598 210.641 72.9729L210.703 72.793C210.821 72.4747 210.855 72.1426 210.821 71.8175C210.758 71.2709 210.495 70.752 210.059 70.3715L205.542 66.5041L205.528 66.4972C205.742 65.1826 205.853 63.8405 205.853 62.4983C205.853 61.329 205.77 60.1529 205.604 59.0044C205.583 58.8522 205.556 58.7 205.535 58.5478C205.535 58.534 205.528 58.5132 205.528 58.4994L210.059 54.625C210.537 54.2168 210.814 53.6288 210.834 53.0199C210.841 52.7432 210.8 52.4595 210.703 52.1897L210.641 52.0098C209.393 48.5231 207.525 45.2909 205.127 42.4693L205.002 42.324C204.711 41.9819 204.323 41.7359 203.89 41.6186C203.456 41.5013 202.997 41.5181 202.574 41.6667L196.949 43.6662C194.873 41.9642 192.563 40.622 190.058 39.6811H190.051L188.965 33.8004C188.958 33.7658 188.951 33.7243 188.937 33.6897C188.837 33.2714 188.618 32.8911 188.306 32.5951C187.994 32.2991 187.603 32.1001 187.18 32.0223L186.993 31.9878C183.389 31.3374 179.597 31.3374 175.993 31.9878L175.806 32.0223C175.363 32.1026 174.955 32.3156 174.637 32.6332C174.318 32.9508 174.103 33.3579 174.021 33.8004L172.928 39.7088C170.443 40.6499 168.13 41.9914 166.079 43.68L160.412 41.6667C159.989 41.5169 159.53 41.4995 159.096 41.6169C158.662 41.7343 158.274 41.9809 157.984 42.324L157.86 42.4693C155.464 45.2929 153.596 48.5246 152.346 52.0098L152.283 52.1897C152.139 52.5918 152.114 53.027 152.211 53.443C152.308 53.859 152.523 54.2382 152.83 54.5351C152.864 54.5628 152.892 54.5974 152.927 54.625L157.514 58.5409V58.5478C157.299 59.8485 157.195 61.1699 157.195 62.4914C157.195 63.8197 157.299 65.148 157.514 66.4418L152.927 70.3577C152.585 70.6503 152.34 71.04 152.225 71.475C152.11 71.91 152.131 72.3697 152.283 72.793L152.346 72.9729C153.598 76.4598 155.452 79.6769 157.86 82.5134L157.984 82.6587C158.323 83.0531 158.773 83.3091 159.264 83.399C159.638 83.4682 160.032 83.4474 160.412 83.316L166.079 81.3027C166.086 81.3096 166.099 81.3165 166.106 81.3235C168.161 83.0047 170.451 84.3399 172.928 85.2739L174.021 91.1823C174.103 91.6248 174.318 92.0319 174.637 92.3495C174.955 92.6671 175.363 92.8801 175.806 92.9604L175.993 92.9949C177.799 93.3201 179.646 93.4862 181.493 93.4862H181.514C183.354 93.4862 185.201 93.3201 186.993 92.9949L187.18 92.9604ZM184.427 88.3596C182.473 88.581 180.5 88.581 178.546 88.3596L177.307 81.6348L174.692 80.6316C172.72 79.8844 170.887 78.819 169.247 77.4699L167.075 75.678L160.613 77.9749C159.437 76.3906 158.455 74.6817 157.666 72.8829L162.889 68.4205L162.44 65.6531C162.274 64.6222 162.184 63.5568 162.184 62.5052C162.184 61.4467 162.267 60.3881 162.44 59.3573L162.889 56.5899L157.666 52.1275C158.448 50.3217 159.437 48.6198 160.613 47.0355L167.075 49.3324L169.247 47.5405C170.887 46.1914 172.72 45.126 174.692 44.3788L177.314 43.3894L178.553 36.6646C180.497 36.4433 182.482 36.4433 184.433 36.6646L185.672 43.3756L188.308 44.3649C190.293 45.1121 192.141 46.1776 193.794 47.5336L195.967 49.3186L202.387 47.0424C203.563 48.6267 204.545 50.3356 205.334 52.1344L200.166 56.5553L200.616 59.3158C200.789 60.3605 200.879 61.4328 200.879 62.5052C200.879 63.5776 200.789 64.6499 200.616 65.6946L200.159 68.4689L205.327 72.8898C204.544 74.6948 203.555 76.4034 202.38 77.9818L195.96 75.7057L193.787 77.4906C192.134 78.8466 190.293 79.9121 188.301 80.6593L185.665 81.6486L184.427 88.3596Z" fill="black"/>
<g clip-path="url(#clip1_19_2)">
<path d="M106.338 66.1158C105.022 63.0173 102.993 60.4268 100.532 58.4665C95.1016 54.1459 87.5412 52.8535 80.6999 55.7575C70.7601 59.9767 66.1224 71.4554 70.3416 81.3951C73.2456 88.2364 79.5819 92.5587 86.4896 93.223C89.6219 93.5227 92.8705 93.073 95.9793 91.7534C105.919 87.5342 110.557 76.0556 106.338 66.1158ZM76.8863 78.6171C75.5885 75.5595 75.5652 72.1781 76.8026 69.0942C78.0503 66.0061 80.4204 63.6001 83.478 62.3022C86.5356 61.0043 89.9126 60.9708 93.0008 62.2185C94.517 62.8286 95.8977 63.7324 97.0633 64.878C98.229 66.0236 99.1566 67.3884 99.7928 68.8938C101.091 71.9515 101.114 75.3329 99.8765 78.4167C99.2665 79.9329 98.3626 81.3136 97.217 82.4792C96.0714 83.6448 94.7066 84.5725 93.2012 85.2087C90.1436 86.5066 86.7622 86.5299 83.6784 85.2924C82.1621 84.6823 80.7815 83.7785 79.6158 82.6329C78.4502 81.4873 77.5226 80.1225 76.8863 78.6171Z" fill="black"/>
<path d="M116.277 116.23C116.881 115.833 117.351 115.262 117.623 114.593C117.895 113.924 117.956 113.187 117.8 112.482L115.716 103.108C118.827 100.15 121.428 96.6975 123.411 92.89L132.979 92.3164C133.7 92.272 134.389 92.0096 134.957 91.5639C135.524 91.1183 135.943 90.5105 136.156 89.8213L136.249 89.5284C138.024 83.8149 138.75 77.9067 138.414 71.967L138.393 71.6621C138.367 71.1179 138.21 70.6053 137.955 70.1464C137.52 69.3776 136.805 68.7756 135.922 68.4866L126.818 65.6047L126.794 65.6032C126.286 63.5257 125.607 61.4723 124.765 59.4885C124.032 57.7603 123.171 56.0739 122.205 54.4806C122.079 54.2686 121.942 54.061 121.816 53.849C121.808 53.8286 121.784 53.8022 121.776 53.7818L126.043 45.212C126.492 44.3091 126.533 43.2663 126.181 42.3534C126.018 41.94 125.779 41.5468 125.466 41.2087L125.261 40.9819C121.23 36.6109 116.44 33.0054 111.125 30.3396L110.85 30.203C110.205 29.8799 109.478 29.7597 108.763 29.8583C108.049 29.9568 107.381 30.2695 106.848 30.7551L99.7888 37.2395C95.6531 36.0261 91.3955 35.492 87.1033 35.6726L87.0931 35.677L81.798 27.6663C81.766 27.6195 81.7298 27.5625 81.6876 27.52C81.2775 26.9644 80.7149 26.5399 80.068 26.2981C79.4212 26.0563 78.718 26.0077 78.044 26.1581L77.7462 26.2241C72.0104 27.5244 66.4065 29.9031 61.4867 33.1259L61.2323 33.2942C60.6281 33.6906 60.1589 34.2615 59.8869 34.9309C59.6149 35.6004 59.553 36.3368 59.7095 37.0422L61.8008 46.4612C58.7189 49.411 56.1408 52.8455 54.1685 56.6283L44.5302 57.2075C43.81 57.2519 43.1203 57.5143 42.5528 57.96C41.9854 58.4056 41.5669 59.0135 41.3532 59.7026L41.2603 59.9955C39.491 65.672 38.7578 71.6206 39.0959 77.5569L39.1167 77.8618C39.1559 78.5466 39.3918 79.2055 39.7961 79.7596C40.2004 80.3137 40.7559 80.7393 41.3961 80.9856C41.4646 81.0048 41.5272 81.0385 41.5957 81.0577L50.8325 83.9678L50.8368 83.978C51.3359 86.0351 52.0115 88.0534 52.8406 90.0066C53.674 91.97 54.6609 93.8683 55.7896 95.646L51.4665 104.312C51.1449 104.959 51.0278 105.688 51.1309 106.404C51.2339 107.119 51.5522 107.785 52.0434 108.315L52.2483 108.542C56.287 112.91 61.046 116.502 66.3844 119.184L66.6596 119.321C67.4081 119.691 68.2334 119.787 69.0159 119.612C69.6115 119.48 70.1814 119.202 70.6614 118.769L77.7734 112.238C77.788 112.244 77.8128 112.245 77.8273 112.251C81.9193 113.447 86.1419 113.984 90.3888 113.81L95.7115 121.858C96.1103 122.46 96.683 122.927 97.3535 123.197C98.024 123.466 98.7606 123.525 99.4655 123.366L99.7633 123.3C102.636 122.647 105.471 121.734 108.201 120.575L108.232 120.562C110.952 119.407 113.578 118.003 116.023 116.398L116.277 116.23ZM109.321 111.157C106.571 112.71 103.655 113.948 100.628 114.847L94.5787 105.684L90.0839 105.842C86.7006 105.974 83.3222 105.55 80.0522 104.585L75.717 103.299L67.6069 110.748C64.8744 109.144 62.3501 107.235 60.0558 105.071L64.9767 95.198L62.5757 91.3897C61.6835 89.9702 60.8821 88.4518 60.2223 86.8974C59.5582 85.3328 59.0168 83.7161 58.6257 82.0839L57.5541 77.7113L47.0336 74.3927C47.0562 71.2332 47.4507 68.0968 48.1951 65.0171L59.1875 64.358L61.2742 60.3464C62.8514 57.3236 64.8928 54.5984 67.3384 52.2569L70.5934 49.1494L68.2047 38.4327C70.9393 36.8857 73.8742 35.6399 76.8969 34.743L82.9379 43.8854L87.4548 43.6939C90.8585 43.5525 94.2573 43.9684 97.5521 44.9353L101.883 46.2106L109.945 38.818C112.677 40.4219 115.202 42.3314 117.496 44.4953L112.631 54.2723L115.027 58.0704C115.938 59.506 116.744 61.0346 117.417 62.6197C118.09 64.2047 118.63 65.8462 119.03 67.4989L120.095 71.886L130.508 75.178C130.482 78.3374 130.093 81.4834 129.346 84.5536L118.428 85.2174L116.337 89.2187C114.744 92.2605 112.692 94.9899 110.216 97.3445L106.941 100.461L109.321 111.157Z" fill="black"/>
</g>
<defs>
<clipPath id="clip0_19_2">
<rect width="42" height="42" fill="white" transform="translate(153.3 85.4254) rotate(33)"/>
</clipPath>
<clipPath id="clip1_19_2">
<rect width="99.5556" height="99.5556" fill="white" transform="translate(23.5 48.3994) rotate(-23)"/>
</clipPath>
</defs>
</svg>
